<svg height="512pt" viewBox="0 0 512 512" width="512pt" xmlns="http://www.w3.org/2000/svg"><path d="m512 256c0 42.539062-10.378906 82.671875-28.75 117.96875-2.648438 5.101562-5.46875 10.109375-8.449219 15-44.929687 73.769531-126.121093 123.03125-218.800781 123.03125-141.378906 0-256-114.621094-256-256s114.621094-256 256-256 256 114.621094 256 256zm0 0" fill="#68fcdf"/><path d="m512 256c0 26.050781-3.890625 51.191406-11.128906 74.871094-22.550782 73.867187-77.621094 133.558594-148.53125 162.378906-29.738282 12.089844-62.261719 18.75-96.339844 18.75-33.03125 0-64.601562-6.261719-93.578125-17.660156-62.792969-24.660156-113.460937-73.417969-140.652344-134.890625-14-31.628907-21.769531-66.628907-21.769531-103.449219 0-46.21875 12.25-89.570312 33.679688-127 44.121093 77.070312 127.160156 129 222.320312 129s178.210938-51.929688 222.320312-129c21.429688 37.429688 33.679688 80.78125 33.679688 127zm0 0" fill="#10e2c4"/><path d="m203.46875 411.703125h105.0625v78.097656h-105.0625zm0 0" fill="#323b5a"/><path d="m354.738281 492.261719c-30.386719 12.71875-63.75 19.738281-98.738281 19.738281-35 0-68.359375-7.03125-98.738281-19.738281 5.410156-6.902344 13.828125-11.332031 23.277343-11.332031h150.921876c9.449218 0 17.867187 4.429687 23.277343 11.332031zm0 0" fill="#474f6f"/><path d="m441.929688 189.890625v198.945313c0 13.308593-10.800782 24.109374-24.109376 24.109374h-323.640624c-13.308594 0-24.109376-10.800781-24.109376-24.109374v-198.945313c0-13.320313 10.800782-24.113281 24.109376-24.113281h323.640624c13.308594 0 24.109376 10.789062 24.109376 24.113281zm0 0" fill="#474f6f"/><path d="m441.929688 189.890625v198.945313c0 13.308593-10.800782 24.109374-24.109376 24.109374h-161.820312v-247.167968h161.820312c13.308594 0 24.109376 10.789062 24.109376 24.113281zm0 0" fill="#535e89"/><path d="m424.308594 203.230469v175.035156c0 7.886719-6.398438 14.289063-14.289063 14.289063h-308.039062c-7.890625 0-14.289063-6.402344-14.289063-14.289063v-175.035156c0-7.890625 6.398438-14.292969 14.289063-14.292969h308.039062c7.890625 0 14.289063 6.402344 14.289063 14.292969zm0 0" fill="#d0f6ff"/><path d="m424.308594 203.230469v175.035156c0 7.886719-6.398438 14.289063-14.289063 14.289063h-154.417969v-203.617188h154.417969c7.890625 0 14.289063 6.402344 14.289063 14.292969zm0 0" fill="#fff"/><path d="m379.75 231.207031v120.308594c0 5.71875-4.636719 10.355469-10.355469 10.355469h-223.21875c-5.71875 0-10.355469-4.636719-10.355469-10.355469v-120.316406c0-5.714844 4.632813-10.347657 10.347657-10.347657h223.226562c5.71875 0 10.355469 4.636719 10.355469 10.355469zm0 0" fill="#474f6f"/><path d="m379.75 231.207031v120.308594c0 5.71875-4.636719 10.355469-10.355469 10.355469h-112.960937v-141.019532h112.960937c5.71875 0 10.355469 4.636719 10.355469 10.355469zm0 0" fill="#535e89"/><path d="m267.242188 275.773438v68.015624c0 3.613282-2.925782 6.539063-6.535157 6.539063h-107.207031c-3.609375 0-6.535156-2.925781-6.535156-6.539063v-68.015624c0-3.605469 2.921875-6.53125 6.527344-6.53125h107.222656c3.605468 0 6.527344 2.921874 6.527344 6.53125zm0 0" fill="#ebf0f3"/><path d="m267.242188 275.773438v68.015624c0 3.613282-2.925782 6.539063-6.535157 6.539063h-54.777343v-81.085937h54.785156c3.605468 0 6.527344 2.921874 6.527344 6.53125zm0 0" fill="#fff"/><path d="m267.242188 275.773438v17.121093h-120.277344v-17.121093c0-3.605469 2.921875-6.53125 6.527344-6.53125h107.222656c3.605468 0 6.527344 2.921874 6.527344 6.53125zm0 0" fill="#0066e8"/><path d="m267.242188 275.773438v17.121093h-61.3125v-23.652343h54.785156c3.605468 0 6.527344 2.921874 6.527344 6.53125zm0 0" fill="#178cda"/><g fill="#ebf0f3"><path d="m164.40625 280.242188c.820312 3.699218-2.402344 6.917968-6.097656 6.101562-1.863282-.414062-3.367188-1.917969-3.78125-3.78125-.820313-3.695312 2.402344-6.917969 6.101562-6.097656 1.863282.410156 3.363282 1.914062 3.777344 3.777344zm0 0"/><path d="m178.933594 280.242188c.820312 3.699218-2.402344 6.917968-6.097656 6.101562-1.863282-.414062-3.367188-1.917969-3.78125-3.78125-.820313-3.699219 2.402343-6.917969 6.101562-6.097656 1.863281.410156 3.367188 1.914062 3.777344 3.777344zm0 0"/><path d="m193.464844 280.242188c.816406 3.699218-2.402344 6.917968-6.101563 6.101562-1.863281-.414062-3.367187-1.917969-3.777343-3.78125-.820313-3.699219 2.398437-6.917969 6.097656-6.097656 1.863281.410156 3.367187 1.914062 3.78125 3.777344zm0 0"/></g><path d="m346.039062 236.59375-5.558593 51.585938-13.703125-14.753907-42.976563 41.664063-21.125-14.28125-38.625 22.640625 38.148438-46.351563 14.503906 8.824219 30.121094-33.972656-12.644531-13.621094zm0 0" fill="#f8c706"/><path d="m346.039062 236.59375-5.558593 51.585938-13.703125-14.753907-42.976563 41.664063-21.125-14.28125-38.625 22.640625 38.820313-34.542969 15.910156 9.089844zm0 0" fill="#ff9f00"/><path d="m461.101562 361.25v12.40625c0 2.648438-.171874 5.253906-.503906 7.804688-1.386718 10.539062-5.53125 20.207031-11.703125 28.253906-3.179687 4.132812-6.890625 7.84375-11.035156 11.015625-8.039063 6.171875-17.695313 10.316406-28.238281 11.703125-2.214844.289062-4.476563.460937-6.773438.488281-.34375.015625-.6875.015625-1.027344.015625-2.640624 0-5.253906-.167969-7.792968-.503906-10.542969-1.386719-20.199219-5.53125-28.246094-11.703125-4.144531-3.167969-7.855469-6.882813-11.027344-11.035157-6.171875-8.035156-10.324218-17.695312-11.703125-28.234374-.332031-2.550782-.511719-5.15625-.511719-7.804688v-12.40625zm0 0" fill="#a63914"/><path d="m461.101562 361.25v12.40625c0 2.648438-.171874 5.253906-.503906 7.804688-1.386718 10.539062-5.53125 20.207031-11.703125 28.253906-3.179687 4.132812-6.890625 7.84375-11.035156 11.015625-8.039063 6.171875-17.695313 10.316406-28.238281 11.703125-2.214844.289062-4.476563.460937-6.773438.488281v-71.671875zm0 0" fill="#eb7722"/><path d="m461.101562 361.25c0 2.640625-.171874 5.253906-.503906 7.792969-1.386718 10.542969-5.53125 20.210937-11.703125 28.253906-3.179687 4.136719-6.890625 7.847656-11.035156 11.019531-8.039063 6.171875-17.695313 10.324219-28.238281 11.703125-2.214844.289063-4.476563.46875-6.773438.496094-.34375.019531-.6875.019531-1.027344.019531-2.640624 0-5.253906-.179687-7.792968-.515625-10.542969-1.378906-20.199219-5.53125-28.246094-11.703125-4.144531-3.171875-7.855469-6.882812-11.027344-11.027344-6.171875-8.046874-10.324218-17.703124-11.703125-28.246093-.332031-2.539063-.511719-5.152344-.511719-7.792969 0-2.648438.179688-5.253906.511719-7.800781 1.378907-10.542969 5.535157-20.199219 11.703125-28.234375 3.171875-4.148438 6.882813-7.859375 11.019532-11.039063 8.046874-6.171875 17.710937-10.316406 28.253906-11.703125 2.539062-.332031 5.152344-.503906 7.792968-.503906.339844 0 .683594 0 1.027344.019531 2.296875.027344 4.558594.195313 6.773438.484375 10.542968 1.390625 20.207031 5.535156 28.253906 11.703125 4.136719 3.179688 7.839844 6.882813 11.019531 11.019531 6.171875 8.042969 10.316407 17.710938 11.703125 28.253907.332032 2.546875.503906 5.152343.503906 7.800781zm0 0" fill="#eb7722"/><path d="m461.101562 361.25c0 2.640625-.171874 5.253906-.503906 7.792969-1.386718 10.542969-5.53125 20.210937-11.703125 28.253906-3.179687 4.136719-6.890625 7.847656-11.035156 11.019531-8.039063 6.171875-17.695313 10.324219-28.238281 11.703125-2.214844.289063-4.476563.46875-6.773438.496094v-118.527344c2.296875.027344 4.558594.195313 6.773438.484375 10.542968 1.390625 20.207031 5.535156 28.253906 11.703125 4.136719 3.179688 7.839844 6.882813 11.019531 11.019531 6.171875 8.042969 10.316407 17.710938 11.703125 28.253907.332032 2.546875.503906 5.152343.503906 7.800781zm0 0" fill="#ffd112"/><path d="m449.453125 361.25c0 2.117188-.144531 4.21875-.414063 6.261719-1.109374 8.46875-4.441406 16.234375-9.398437 22.695312-2.558594 3.324219-5.539063 6.308594-8.863281 8.855469-6.460938 4.957031-14.226563 8.289062-22.6875 9.398438-1.710938.226562-3.46875.359374-5.242188.394531-.339844.019531-.683594.019531-1.027344.019531-2.117187 0-4.214843-.144531-6.261718-.414062-8.46875-1.109376-16.226563-4.441407-22.6875-9.398438-3.332032-2.546875-6.3125-5.53125-8.863282-8.863281-4.953124-6.460938-8.289062-14.21875-9.398437-22.6875-.269531-2.042969-.414063-4.144531-.414063-6.261719 0-2.125.144532-4.222656.414063-6.269531 1.109375-8.460938 4.445313-16.226563 9.398437-22.6875 2.550782-3.324219 5.53125-6.304688 8.855469-8.863281 6.460938-4.957032 14.226563-8.289063 22.695313-9.398438 2.046875-.269531 4.144531-.414062 6.261718-.414062.34375 0 .6875 0 1.027344.019531 1.773438.035156 3.53125.171875 5.242188.394531 8.460937 1.109375 16.234375 4.441406 22.695312 9.398438 3.324219 2.558593 6.300782 5.53125 8.855469 8.855468 4.957031 6.460938 8.289063 14.234375 9.398437 22.695313.269532 2.042969.414063 4.144531.414063 6.269531zm0 0" fill="#a63914"/><path d="m449.453125 361.25c0 2.117188-.144531 4.21875-.414063 6.261719-1.109374 8.46875-4.441406 16.234375-9.398437 22.695312-2.558594 3.324219-5.539063 6.308594-8.863281 8.855469-6.460938 4.957031-14.226563 8.289062-22.6875 9.398438-1.710938.226562-3.46875.359374-5.242188.394531v-95.21875c1.773438.035156 3.53125.171875 5.242188.394531 8.460937 1.109375 16.234375 4.441406 22.695312 9.398438 3.324219 2.558593 6.300782 5.53125 8.855469 8.855468 4.957031 6.460938 8.289063 14.234375 9.398437 22.695313.269532 2.042969.414063 4.144531.414063 6.269531zm0 0" fill="#eb7722"/><path d="m440.363281 361.25c0 1.714844-.117187 3.414062-.332031 5.0625-.902344 6.859375-3.597656 13.148438-7.605469 18.371094-2.070312 2.683594-4.488281 5.097656-7.171875 7.164062-5.226562 4.007813-11.515625 6.710938-18.359375 7.601563-1.324219.171875-2.675781.28125-4.046875.316406-.339844.007813-.683594.015625-1.027344.015625-1.710937 0-3.414062-.117188-5.0625-.332031-6.855468-.890625-13.136718-3.59375-18.359374-7.601563-2.695313-2.066406-5.109376-4.480468-7.171876-7.171875-4.011718-5.226562-6.703124-11.503906-7.605468-18.363281-.214844-1.648438-.332032-3.347656-.332032-5.0625 0-1.71875.117188-3.414062.332032-5.070312.902344-6.847657 3.59375-13.136719 7.605468-18.363282 2.0625-2.683594 4.476563-5.097656 7.160157-7.167968 5.234375-4.011719 11.515625-6.703126 18.371093-7.605469 1.648438-.214844 3.351563-.332031 5.0625-.332031.34375 0 .6875.007812 1.027344.015624 1.371094.039063 2.722656.144532 4.046875.316407 6.84375.902343 13.132813 3.59375 18.359375 7.605469 2.695313 2.070312 5.097656 4.476562 7.171875 7.167968 4.007813 5.226563 6.703125 11.515625 7.605469 18.363282.214844 1.65625.332031 3.351562.332031 5.070312zm0 0" fill="#ffd112"/><path d="m440.363281 361.25c0 1.714844-.117187 3.414062-.332031 5.0625-.902344 6.859375-3.597656 13.148438-7.605469 18.371094-2.070312 2.683594-4.488281 5.097656-7.171875 7.164062-5.226562 4.007813-11.515625 6.710938-18.359375 7.601563-1.324219.171875-2.675781.28125-4.046875.316406v-77.039063c1.371094.035157 2.722656.144532 4.046875.3125 6.84375.902344 13.132813 3.597657 18.359375 7.605469 2.695313 2.074219 5.097656 4.476563 7.171875 7.171875 4.007813 5.222656 6.703125 11.511719 7.605469 18.359375.214844 1.660157.332031 3.355469.332031 5.074219zm0 0" fill="#ffe955"/><path d="m402.847656 356.441406c-1.9375-.578125-3.28125-1.199218-3.28125-2.363281 0-.980469.792969-1.347656 2-1.347656.386719 0 .820313.035156 1.28125.105469 1.898438.28125 4.332032 1.101562 6.585938 2.074218 1.917968.828125 4.140625.007813 5.042968-1.875l.605469-1.277344c.964844-2.019531.027344-4.445312-2.046875-5.265624-1.269531-.492188-2.628906-.917969-4.027344-1.242188-1.765624-.402344-3.007812-1.964844-3.007812-3.765625v-.261719c0-1.070312-.433594-2.035156-1.136719-2.738281-.539062-.539063-1.230469-.917969-2.015625-1.0625-.234375-.042969-.480468-.070313-.722656-.070313-2.132812 0-3.863281 1.738282-3.863281 3.871094v.585938c0 1.648437-.992188 3.179687-2.539063 3.738281-4.507812 1.625-7.199218 5-7.199218 9.550781 0 8.632813 9.585937 9.179688 14.324218 10.730469 1.546875.511719 2.585938 1.125 2.585938 2.179687 0 1.152344-1.007813 1.675782-2.585938 1.675782-.007812 0-.007812 0-.019531 0-2.367187 0-6-1.171875-9.109375-2.855469-1.917969-1.046875-4.304688-.261719-5.269531 1.703125l-.53125 1.070312c-.929688 1.875-.199219 4.164063 1.65625 5.128907 1.792969.933593 3.757812 1.675781 5.777343 2.207031 1.710938.449219 2.910157 1.980469 2.910157 3.746094v.738281c0 1.074219.429687 2.039063 1.132812 2.730469.695313.703125 1.667969 1.136718 2.730469 1.136718.242188 0 .488281-.027343.722656-.074218 1.800782-.332032 3.152344-1.898438 3.152344-3.792969v-.628906c0-1.6875 1.078125-3.199219 2.691406-3.6875 4.523438-1.359375 7.785156-4.484375 7.785156-9.65625.003907-8.496094-8.710937-9.566407-13.628906-11.007813zm0 0" fill="#a63914"/></svg>